<svg width="340" height="100" viewBox="0 0 340 100" fill="none" xmlns="http://www.w3.org/2000/svg">
<g clip-path="url(#clip0_1_8)">
<rect width="100" height="100" fill="#F25730"/>
<rect x="120" width="100" height="100" fill="#2A6ED4"/>
<rect x="240" width="100" height="100" fill="#47B576"/>
<path d="M24.3382 77C23.8102 77 23.4262 76.76 23.1862 76.28C22.9462 75.752 22.9702 75.104 23.2582 74.336L40.6822 25.232C40.9222 24.656 41.1862 24.248 41.4742 24.008C41.7622 23.72 42.2182 23.576 42.8422 23.576H57.0262C58.2742 23.576 59.1382 24.224 59.6182 25.52L76.8982 74.552C77.0902 75.032 77.0902 75.56 76.8982 76.136C76.7542 76.712 76.4182 77 75.8902 77H61.7782C60.9622 77 60.4342 76.592 60.1942 75.776L57.3862 67.496C57.2902 67.256 57.1702 67.064 57.0262 66.92C56.9302 66.728 56.6902 66.632 56.3062 66.632H41.0422C40.4662 66.632 40.1062 66.896 39.9622 67.424L37.0102 75.92C36.9142 76.208 36.7222 76.472 36.4342 76.712C36.1942 76.904 35.8102 77 35.2822 77H24.3382ZM52.7062 54.392C53.4262 54.392 53.6422 53.912 53.3542 52.952L49.0342 40.64C48.9382 40.4 48.7942 40.28 48.6022 40.28C48.4102 40.28 48.2662 40.4 48.1702 40.64L43.7782 52.88C43.3942 53.888 43.6342 54.392 44.4982 54.392H52.7062Z" fill="white"/>
<path d="M150.83 25.232C150.83 24.128 151.286 23.576 152.198 23.576H190.574C191.438 23.576 191.87 24.08 191.87 25.088L191.798 33.44C191.798 34.736 191.198 35.384 189.998 35.384H168.83C167.726 35.384 167.174 35.84 167.174 36.752V43.52C167.174 44.48 167.606 44.96 168.47 44.96H181.646C182.606 44.96 183.086 45.44 183.086 46.4V55.184C183.086 56 182.654 56.408 181.79 56.408H168.326C167.558 56.408 167.174 56.768 167.174 57.488V74.912C167.174 76.304 166.382 77 164.798 77H152.774C152.006 77 151.478 76.856 151.19 76.568C150.95 76.28 150.83 75.824 150.83 75.2V25.232Z" fill="white"/>
<path d="M314.784 40.928C314.784 44.432 313.944 47.456 312.264 50C310.584 52.496 308.256 54.44 305.28 55.832C302.352 57.176 298.92 57.848 294.984 57.848H285.12C284.544 57.848 284.256 58.112 284.256 58.64V74.912C284.256 76.304 283.464 77 281.88 77H269.784C269.064 77 268.56 76.856 268.272 76.568C268.032 76.28 267.912 75.824 267.912 75.2V25.232C267.912 24.128 268.368 23.576 269.28 23.576H293.112C297.048 23.576 300.648 24.224 303.912 25.52C307.224 26.768 309.864 28.688 311.832 31.28C313.8 33.824 314.784 37.04 314.784 40.928ZM298.08 40.712C298.08 39.56 297.816 38.576 297.288 37.76C296.76 36.896 296.04 36.248 295.128 35.816C294.216 35.336 293.208 35.096 292.104 35.096H285.912C284.808 35.096 284.256 35.6 284.256 36.608V44.744C284.256 45.8 284.664 46.328 285.48 46.328H292.536C294.264 46.328 295.608 45.776 296.568 44.672C297.576 43.568 298.08 42.248 298.08 40.712Z" fill="white"/>
</g>
<defs>
<clipPath id="clip0_1_8">
<rect width="340" height="100" fill="white"/>
</clipPath>
</defs>
</svg>
