<svg width="774" height="92" xmlns="http://www.w3.org/2000/svg"><g fill="none" fill-rule="evenodd"><path fill="#F24307" d="M0 0h250v92H0z"/><path d="M60.309 26l14.327 38.631H58.104l-1.74-5.394H42.501L40.82 64.63H28L42.27 26h18.039zM49.462 37.6L45.169 51h8.585l-4.292-13.4zm45.997 27.031H79.972l-9.86-27.03h13.92L88.5 52.972l4.466-15.371h12.413L95.46 64.63zm33.875-10.383l-5.046-.522c.116-.696.232-1.276.232-2.146 0-1.218-.29-2.32-1.16-2.32-1.566 0-2.089 2.262-2.089 8.295v7.076h-15.08v-27.03h11.542l2.61 9.223v-.928c0-5.51 2.437-8.875 6.439-8.875 4.06 0 6.032 3.48 6.032 7.598 0 3.307-1.16 6.845-3.48 9.63zm38.283-3.132c0 8.759-6.844 14.095-17.227 14.095s-17.228-5.336-17.228-14.095 6.845-14.095 17.228-14.095c10.383 0 17.227 5.336 17.227 14.095zm-15.081 0c0-5.046-.87-5.684-2.146-5.684-1.276 0-2.146.638-2.146 5.684s.87 5.684 2.146 5.684c1.276 0 2.146-.638 2.146-5.684zm50.754 13.515h-15.081V49.956c0-1.16-.522-1.972-1.508-1.972-1.392 0-2.03 1.566-2.03 4.002v12.645h-15.082v-27.03h11.543l2.262 7.773c1.45-4.699 4.757-8.353 10.093-8.353 5.279 0 8.295 2.958 9.339 8.41 1.508-4.698 4.408-8.41 9.28-8.41 6.787 0 9.804 4.814 9.804 13.689v13.921h-15.082V49.956c0-1.16-.522-1.972-1.508-1.972-1.218 0-2.03 1.566-2.03 4.002v12.645z" fill="#FFF" fill-rule="nonzero"/><path fill="#0069C7" d="M262 0h250v92H262z"/><path d="M327.661 64.631H312V26h33.7v10.557h-18.039v4.582h14.211v8.7h-14.21v14.792zm52.61-6.67v4.872c-1.682 1.682-5.742 2.378-8.12 2.378-3.945 0-7.019-1.972-8.179-5.22-2.03 3.77-6.496 5.22-10.73 5.22-5.395 0-8.121-2.9-8.121-7.424 0-5.51 5.336-7.135 12.18-7.135 1.625 0 3.249.116 4.989.29V45.78c0-1.045-.406-1.567-1.16-1.567-.812 0-1.276.522-1.276 1.567 0 .522.174 1.218.406 1.798l-13.051 2.784c-.812-1.566-1.218-3.074-1.218-4.466 0-5.105 5.394-8.875 16.067-8.875 9.86 0 15.313 3.248 15.313 11.137v8.41c0 1.335.348 1.799 1.218 1.799.29 0 1.044 0 1.682-.406zm-17.923-1.16v-1.74c-2.726.347-3.306 1.275-3.306 2.262 0 .87.522 1.508 1.624 1.508 1.16 0 1.682-.754 1.682-2.03zm43.04-2.553l-5.047-.522c.116-.696.232-1.276.232-2.146 0-1.218-.29-2.32-1.16-2.32-1.566 0-2.088 2.262-2.088 8.295v7.076h-15.081v-27.03h11.543l2.61 9.223v-.928c0-5.51 2.436-8.875 6.438-8.875 4.06 0 6.033 3.48 6.033 7.598 0 3.307-1.16 6.845-3.48 9.63zm38.979 10.383h-15.082V49.956c0-1.16-.522-1.972-1.508-1.972-1.392 0-2.03 1.566-2.03 4.002v12.645h-15.081v-27.03h11.543l2.262 7.773c1.45-4.699 4.756-8.353 10.093-8.353 5.278 0 8.294 2.958 9.339 8.41 1.508-4.698 4.408-8.41 9.28-8.41 6.787 0 9.803 4.814 9.803 13.689v13.921h-15.081V49.956c0-1.16-.522-1.972-1.508-1.972-1.218 0-2.03 1.566-2.03 4.002v12.645z" fill="#FFF" fill-rule="nonzero"/><path fill="#03AD70" d="M524 0h250v92H524z"/><path d="M608.197 39.051c0 6.845-4.988 12.123-17.46 12.123h-7.076v13.457H568V26h22.274c12.587 0 17.923 5.51 17.923 13.051zm-15.661 1.45c0-2.03-1.74-3.538-4.408-3.538h-4.467v7.366h4.467c3.074 0 4.408-1.798 4.408-3.828zm50.522 17.46v4.872c-1.682 1.682-5.742 2.378-8.12 2.378-3.945 0-7.02-1.972-8.18-5.22-2.03 3.77-6.496 5.22-10.73 5.22-5.395 0-8.12-2.9-8.12-7.424 0-5.51 5.336-7.135 12.18-7.135 1.624 0 3.248.116 4.989.29V45.78c0-1.045-.406-1.567-1.16-1.567-.813 0-1.277.522-1.277 1.567 0 .522.174 1.218.406 1.798l-13.05 2.784c-.813-1.566-1.219-3.074-1.219-4.466 0-5.105 5.395-8.875 16.068-8.875 9.86 0 15.313 3.248 15.313 11.137v8.41c0 1.335.348 1.799 1.218 1.799.29 0 1.044 0 1.682-.406zm-17.923-1.16v-1.74c-2.727.347-3.307 1.275-3.307 2.262 0 .87.522 1.508 1.624 1.508 1.16 0 1.683-.754 1.683-2.03zm43.039-2.553l-5.046-.522c.116-.696.232-1.276.232-2.146 0-1.218-.29-2.32-1.16-2.32-1.567 0-2.089 2.262-2.089 8.295v7.076h-15.08v-27.03h11.542l2.61 9.223v-.928c0-5.51 2.436-8.875 6.439-8.875 4.06 0 6.032 3.48 6.032 7.598 0 3.307-1.16 6.845-3.48 9.63zm27.204 3.307l.174 5.684c-2.378 1.392-5.568 1.972-9.049 1.972-8.062 0-11.194-3.654-11.194-10.557v-11.31h-3.19V37.6h3.19v-7.773l15.08-.986v8.759h4.99v5.742h-4.99v11.891c0 1.74.407 2.727 2.321 2.727.87 0 1.74-.116 2.668-.406zM730.413 37.6l-9.165 26.45c-2.552 7.309-4.756 10.673-12.877 10.673-3.306 0-5.858-.638-8.004-1.508l.232-5.627c.696.174 1.392.29 2.494.29 1.798 0 3.132-.754 3.596-2.32l-11.137-27.958h13.921l4.177 15.72L718 37.6h12.413z" fill="#FFF" fill-rule="nonzero"/></g></svg>