<svg width="92" height="28" xmlns="http://www.w3.org/2000/svg"><g fill="none" fill-rule="evenodd"><path fill="#F24307" d="M0 0h28v28H0z"/><path d="M17.315 7.573L22.295 21h-5.746l-.605-1.875h-4.818L10.541 21H6.086l4.96-13.427h6.27zm-3.77 4.032l-1.492 4.657h2.984l-1.492-4.657z" fill="#FFF" fill-rule="nonzero"/><path fill="#0069C6" d="M32 0h28v28H32z"/><path fill="#FFF" fill-rule="nonzero" d="M45.979 21h-5.443V7.573h11.712v3.67h-6.27v1.592h4.94v3.024h-4.94z"/><g><path fill="#01AD70" d="M64 0h28v28H64z"/><path d="M85.478 12.11c0 2.378-1.734 4.213-6.068 4.213h-2.46V21h-5.443V7.573h7.742c4.375 0 6.23 1.916 6.23 4.536zm-5.443.503c0-.705-.605-1.23-1.532-1.23H76.95v2.561h1.552c1.068 0 1.532-.625 1.532-1.33z" fill="#FFF" fill-rule="nonzero"/></g></g></svg>