<svg width="80" height="80" xmlns="http://www.w3.org/2000/svg"><g fill="#FAEDCA" fill-rule="nonzero"><path d="M13.3 38.541a8 8 0 1 0-8-8 8.008 8.008 0 0 0 8 8zm0-13.333a5.333 5.333 0 1 1 0 10.666 5.333 5.333 0 0 1 0-10.666zM10.707 10.826a6.73 6.73 0 0 1 6.723 6.723 1.345 1.345 0 0 0 2.689 0 6.73 6.73 0 0 1 6.723-6.723 1.345 1.345 0 0 0 0-2.689 6.73 6.73 0 0 1-6.723-6.723 1.345 1.345 0 1 0-2.69 0 6.73 6.73 0 0 1-6.722 6.723 1.345 1.345 0 0 0 0 2.69zm8.067-4.571a9.5 9.5 0 0 0 3.227 3.227 9.5 9.5 0 0 0-3.227 3.227 9.5 9.5 0 0 0-3.227-3.227 9.5 9.5 0 0 0 3.227-3.227zM63.895 66.646a6.73 6.73 0 0 1-6.722-6.723 1.345 1.345 0 1 0-2.69 0 6.73 6.73 0 0 1-6.722 6.723 1.345 1.345 0 1 0 0 2.689 6.73 6.73 0 0 1 6.722 6.723 1.345 1.345 0 0 0 2.69 0 6.73 6.73 0 0 1 6.722-6.723 1.345 1.345 0 0 0 0-2.69zm-8.067 4.571a9.5 9.5 0 0 0-3.227-3.227 9.5 9.5 0 0 0 3.227-3.227 9.5 9.5 0 0 0 3.227 3.227 9.5 9.5 0 0 0-3.227 3.227z"/><path d="M32.332 26.815c-2.223 0-4.026 1.786-4.026 3.988v5.318h-6.71v2.659h8.052c.741 0 1.342-.595 1.342-1.33v-6.647c0-.734.601-1.329 1.342-1.329.741 0 1.342.595 1.342 1.33v9.305c0 .735-.6 1.33-1.342 1.33H21.596c-.741 0-1.342.595-1.342 1.33v6.646c0 .353.141.69.393.94l7.266 7.198c.252.25.393.588.393.94v12.193c0 .734-.6 1.33-1.342 1.33a1.336 1.336 0 0 1-1.342-1.33V60.05c0-.353-.142-.691-.393-.94l-5.368-5.318a1.351 1.351 0 0 0-1.898 0l-4.026 3.988a1.32 1.32 0 0 0 0 1.88l3.24 3.21c.252.249.393.587.393.94v12.192c0 .735-.601 1.33-1.342 1.33a1.336 1.336 0 0 1-1.342-1.33V65.368c0-.352-.142-.69-.394-.94L8.57 58.56a1.323 1.323 0 0 1-.394-.94v-4.217h2.684c2.224 0 4.027-1.785 4.027-3.988 0-2.202-1.803-3.988-4.027-3.988H8.175v-3.988H5.491v5.317c0 .735.601 1.33 1.342 1.33h4.026c.742 0 1.343.595 1.343 1.33 0 .733-.601 1.329-1.343 1.329H4.15a1.336 1.336 0 0 1-1.342-1.33V40.11c0-.734.601-1.329 1.342-1.329v-2.659c-2.223 0-4.026 1.786-4.026 3.988v9.306c0 2.203 1.803 3.988 4.026 3.988h1.342v4.216a3.947 3.947 0 0 0 1.18 2.821l5.53 5.479v10.084c0 2.203 1.803 3.989 4.027 3.989 2.223 0 4.026-1.786 4.026-3.989V63.811a3.94 3.94 0 0 0-1.18-2.82l-2.29-2.27 2.128-2.108 4.026 3.988v10.085c0 2.202 1.802 3.988 4.026 3.988 2.224 0 4.026-1.786 4.026-3.988V58.494a3.94 3.94 0 0 0-1.18-2.821l-6.872-6.808v-4.767h9.394c2.224 0 4.026-1.786 4.026-3.989v-9.306c0-2.202-1.802-3.988-4.026-3.988zM61.27 16.057a8 8 0 1 0-8-8 8.008 8.008 0 0 0 8 8zm0-13.334a5.333 5.333 0 1 1 0 10.667 5.333 5.333 0 0 1 0-10.667z"/><path d="M75.798 13.375h-7.984v2.659h7.984c.735 0 1.33.595 1.33 1.33v7.975a1.33 1.33 0 0 1-2.66 0v-5.317a1.33 1.33 0 0 0-1.331-1.33h-5.323a1.33 1.33 0 0 0-1.33 1.33v14.85c0 .352-.14.691-.39.94l-4.543 4.539c-.52.519-.52 1.36 0 1.88l6.102 6.096c.52.519.52 1.36 0 1.88l-.229.227a1.332 1.332 0 0 1-1.881 0l-8.213-8.205c-.52-.519-.52-1.36 0-1.88l3.441-3.437c.52-.52.52-1.36 0-1.88l-3.992-3.988a1.332 1.332 0 0 0-1.881 0l-5.323 5.318c-.25.25-.39.588-.39.94v10.635a1.33 1.33 0 0 1-2.661 0v-12.19c0-.354.14-.692.39-.942l7.204-7.197c.25-.249.39-.587.39-.94v-6.646a1.33 1.33 0 0 0-1.33-1.33h-7.985a1.33 1.33 0 0 1-1.33-1.329V8.058a1.33 1.33 0 0 1 2.661 0v6.647c0 .734.596 1.329 1.33 1.329h5.323v-2.659h-3.992V8.058a3.99 3.99 0 0 0-3.992-3.988 3.99 3.99 0 0 0-3.992 3.988v9.305a3.99 3.99 0 0 0 3.992 3.988h6.653v4.767l-6.814 6.807a3.963 3.963 0 0 0-1.17 2.821v12.191a3.99 3.99 0 0 0 3.993 3.988 3.99 3.99 0 0 0 3.991-3.988V37.853l3.992-3.988 2.11 2.108-2.5 2.497a3.986 3.986 0 0 0 0 5.64l8.213 8.205a3.995 3.995 0 0 0 5.645 0l.229-.228a3.986 3.986 0 0 0 0-5.64l-5.162-5.156 3.602-3.599a3.957 3.957 0 0 0 1.17-2.82v-13.52h2.66v3.987a3.99 3.99 0 0 0 3.993 3.988 3.99 3.99 0 0 0 3.992-3.988v-7.976a3.99 3.99 0 0 0-3.992-3.988z"/><path d="M59.945 6.64h2.824v4.235h-2.824zM17.085 31.925v-3.882h-2.589v2.588h-2.588v2.588h3.883c.714 0 1.294-.579 1.294-1.294z"/></g></svg>